<svg xmlns="http://www.w3.org/2000/svg" style="display:none" fill="none" stroke="currentColor" stroke-width="2" stroke-linecap="square" stroke-linejoin="miter" xmlns:c2pa="http://c2pa.org/manifest"><metadata><c2pa:manifest>AAAWgmp1bWIAAAAeanVtZGMycGEAEQAQgAAAqgA4m3EDYzJwYQAAABZcanVtYgAAAEdqdW1kYzJtYQARABCAAACqADibcQN1cm46YzJwYTo2YmFjYzUyYy0wNmIwLTQxNmQtOTc5NC1lZGMwZWNkYTYyNDQAAAADl2p1bWIAAAApanVtZGMyYXMAEQAQgAAAqgA4m3EDYzJwYS5hc3NlcnRpb25zAAAAALxqdW1iAAAARGp1bWRjYm9yABEAEIAAAKoAOJtxE2MycGEuaW5ncmVkaWVudC52MwAAAAAYYzJzaGFCAz8xPnJPbjVAYsS43jIAAABwY2JvcqNpZGM6Zm9ybWF0bWltYWdlL3N2Zyt4bWxqaW5zdGFuY2VJRHgseG1wOmlpZDo3MGMzNTVkMC01YWVlLTRlYjYtODI5MS0wMmNhYjJmNTM2NGVscmVsYXRpb25zaGlwaHBhcmVudE9mAAAB4mp1bWIAAABBanVtZGNib3IAEQAQgAAAqgA4m3ETYzJwYS5hY3Rpb25zLnYyAAAAABhjMnNoxeFJE/kf5YGcQ4y9SwaswAAAAZljYm9yomdhY3Rpb25zgqJmYWN0aW9ua2MycGEub3BlbmVkanBhcmFtZXRlcnOha2luZ3JlZGllbnRzgaJjdXJseC1zZWxmI2p1bWJmPWMycGEuYXNzZXJ0aW9ucy9jMnBhLmluZ3JlZGllbnQudjNkaGFzaFggnsIsazLZfW+QzikEQ7ZVLQSEJ/hH3JG5R7+AIJr4KD2kZmFjdGlvbngdY29tLmFudGhyb3BpYy5jbGF1ZGUucHJvdmlkZWRqcGFyYW1ldGVyc6F4H2NvbS5hbnRocm9waWMub3JpZ2luLWNvbmZpZGVuY2VndW5rbm93bmtkZXNjcmlwdGlvbnhmQ2xhdWRlIHByb3ZpZGVkIHRoaXMgZmlsZSBhdCB0aGUgcmVxdWVzdCBvZiBhIHVzZXIgYW5kIG1heSBoYXZlIGNyZWF0ZWQgb3IgbW9kaWZpZWQgdGhlIGZpbGUgY29udGVudHMubXNvZnR3YXJlQWdlbnShZG5hbWVmQ2xhdWRlcmFsbEFjdGlvbnNJbmNsdWRlZPUAAADIanVtYgAAAEBqdW1kY2JvcgARABCAAACqADibcRNjMnBhLmhhc2guZGF0YQAAAAAYYzJzaBSThpw46PRecoTdW7zkDVUAAACAY2JvcqVjYWxnZnNoYTI1NmNwYWRNAAAAAAAAAAAAAAAAAGRoYXNoWCC+shGa6VQkkIGZw/dlr1Z7iiqNBE5Fb23zNX+VAC5wlmRuYW1lbmp1bWJmIG1hbmlmZXN0amV4Y2x1c2lvbnOBomVzdGFydBjfZmxlbmd0aBkeBAAAAj5qdW1iAAAAJ2p1bWRjMmNsABEAEIAAAKoAOJtxA2MycGEuY2xhaW0udjIAAAACD2Nib3KlY2FsZ2ZzaGEyNTZpc2lnbmF0dXJleE1zZWxmI2p1bWJmPS9jMnBhL3VybjpjMnBhOjZiYWNjNTJjLTA2YjAtNDE2ZC05Nzk0LWVkYzBlY2RhNjI0NC9jMnBhLnNpZ25hdHVyZWppbnN0YW5jZUlEeCx4bXA6aWlkOmQwNjY3MTVmLTYxYmMtNDMyMS1iYzRhLWI2NGVmYjJjODYzNnJjcmVhdGVkX2Fzc2VydGlvbnODomN1cmx4LXNlbGYjanVtYmY9YzJwYS5hc3NlcnRpb25zL2MycGEuaW5ncmVkaWVudC52M2RoYXNoWCCewixrMtl9b5DOKQRDtlUtBIQn+EfckblHv4AgmvgoPaJjdXJseCpzZWxmI2p1bWJmPWMycGEuYXNzZXJ0aW9ucy9jMnBhLmFjdGlvbnMudjJkaGFzaFggTnp8vKWB/5JsO0XJCoUG0pWs+hEbJTF/5UGVy5oEdUuiY3VybHgpc2VsZiNqdW1iZj1jMnBhLmFzc2VydGlvbnMvYzJwYS5oYXNoLmRhdGFkaGFzaFggM/Zehz9FR2ywFDvPuM2O8aikApmyiOdL87/ytMB8t9F0Y2xhaW1fZ2VuZXJhdG9yX2luZm+jZG5hbWVvQW50aHJvcGljIEZpbGVzZ3ZlcnNpb25lMS4wLjBrc3BlY1ZlcnNpb25lMi40LjAAABA4anVtYgAAAChqdW1kYzJjcwARABCAAACqADibcQNjMnBhLnNpZ25hdHVyZQAAABAIY2JvctKEWQISogEmGCFZAgowggIGMIIBjaADAgECAhRA5aAK7sI50L64g/oGQgU9Z1UTADAKBggqhkjOPQQDAzBJMRcwFQYDVQQKEw5BbnRocm9waWMsIFBCQzEuMCwGA1UEAxMlQW50aHJvcGljIENvbnRlbnQgQ3JlZGVudGlhbHMgUm9vdCBDQTAeFw0yNjA4MDcxODQzNTZaFw0yODA4MDYxOTQzNTZaMEQxFzAVBgNVBAoTDkFudGhyb3BpYywgUEJDMSkwJwYDVQQDEyBBbnRocm9waWMgQ2xhdWRlIENvbnRlbnQgU2lnbmluZzBZMBMGByqGSM49AgEGCCqGSM49AwEHA0IABJh6CmvLUBgFFNU0vUKlOVtE6djd17L5SuwX0LemFisBM3dkd/3cyjxFA3Qo5S46fX0/ihY0VZ7mfb9KF703t5OjWDBWMA4GA1UdDwEB/wQEAwIHgDAVBgNVHSUEDjAMBgorBgEEAYPoXgIBMAwGA1UdEwEB/wQCMAAwHwYDVR0jBBgwFoAUzlHiBIFOZFsj+OPEz5o+nMHXXMIwCgYIKoZIzj0EAwMDZwAwZAIwMXMdFJ4BetLLVY7ORuE9noqbbAZOZn/aArXyTwFAZfKrPzxF2vPoJNf1+UCdg1XGAjBwX1zd9WGqYkqmL5SFqw1QySjr1zJfpJM9+1rdDwSPLMOPOjKuiXjoU/pUUeG9RwmhY3BhZFkNngAAAAAAAAAAAAAAAAAAAAAAAAAAAAAAAAAAAAAAAAAAAAAAAAAAAAAAAAAAAAAAAAAAAAAAAAAAAAAAAAAAAAAAAAAAAAAAAAAAAAAAAAAAAAAAAAAAAAAAAAAAAAAAAAAAAAAAAAAAAAAAAAAAAAAAAAAAAAAAAAAAAAAAAAAAAAAAAAAAAAAAAAAAAAAAAAAAAAAAAAAAAAAAAAAAAAAAAAAAAAAAAAAAAAAAAAAAAAAAAAAAAAAAAAAAAAAAAAAAAAAAAAAAAAAAAAAAAAAAAAAAAAAAAAAAAAAAAAAAAAAAAAAAAAAAAAAAAAAAAAAAAAAAAAAAAAAAAAAAAAAAAAAAAAAAAAAAAAAAAAAAAAAAAAAAAAAAAAAAAAAAAAAAAAAAAAAAAAAAAAAAAAAAAAAAAAAAAAAAAAAAAAAAAAAAAAAAAAAAAAAAAAAAAAAAAAAAAAAAAAAAAAAAAAAAAAAAAAAAAAAAAAAAAAAAAAAAAAAAAAAAAAAAAAAAAAAAAAAAAAAAAAAAAAAAAAAAAAAAAAAAAAAAAAAAAAAAAAAAAAAAAAAAAAAAAAAAAAAAAAAAAAAAAAAAAAAAAAAAAAAAAAAAAAAAAAAAAAAAAAAAAAAAAAAAAAAAAAAAAAAAAAAAAAAAAAAAAAAAAAAAAAAAAAAAAAAAAAAAAAAAAAAAAAAAAAAAAAAAAAAAAAAAAAAAAAAAAAAAAAAAAAAAAAAAAAAAAAAAAAAAAAAAAAAAAAAAAAAAAAAAAAAAAAAAAAAAAAAAAAAAAAAAAAAAAAAAAAAAAAAAAAAAAAAAAAAAAAAAAAAAAAAAAAAAAAAAAAAAAAAAAAAAAAAAAAAAAAAAAAAAAAAAAAAAAAAAAAAAAAAAAAAAAAAAAAAAAAAAAAAAAAAAAAAAAAAAAAAAAAAAAAAAAAAAAAAAAAAAAAAAAAAAAAAAAAAAAAAAAAAAAAAAAAAAAAAAAAAAAAAAAAAAAAAAAAAAAAAAAAAAAAAAAAAAAAAAAAAAAAAAAAAAAAAAAAAAAAAAAAAAAAAAAAAAAAAAAAAAAAAAAAAAAAAAAAAAAAAAAAAAAAAAAAAAAAAAAAAAAAAAAAAAAAAAAAAAAAAAAAAAAAAAAAAAAAAAAAAAAAAAAAAAAAAAAAAAAAAAAAAAAAAAAAAAAAAAAAAAAAAAAAAAAAAAAAAAAAAAAAAAAAAAAAAAAAAAAAAAAAAAAAAAAAAAAAAAAAAAAAAAAAAAAAAAAAAAAAAAAAAAAAAAAAAAAAAAAAAAAAAAAAAAAAAAAAAAAAAAAAAAAAAAAAAAAAAAAAAAAAAAAAAAAAAAAAAAAAAAAAAAAAAAAAAAAAAAAAAAAAAAAAAAAAAAAAAAAAAAAAAAAAAAAAAAAAAAAAAAAAAAAAAAAAAAAAAAAAAAAAAAAAAAAAAAAAAAAAAAAAAAAAAAAAAAAAAAAAAAAAAAAAAAAAAAAAAAAAAAAAAAAAAAAAAAAAAAAAAAAAAAAAAAAAAAAAAAAAAAAAAAAAAAAAAAAAAAAAAAAAAAAAAAAAAAAAAAAAAAAAAAAAAAAAAAAAAAAAAAAAAAAAAAAAAAAAAAAAAAAAAAAAAAAAAAAAAAAAAAAAAAAAAAAAAAAAAAAAAAAAAAAAAAAAAAAAAAAAAAAAAAAAAAAAAAAAAAAAAAAAAAAAAAAAAAAAAAAAAAAAAAAAAAAAAAAAAAAAAAAAAAAAAAAAAAAAAAAAAAAAAAAAAAAAAAAAAAAAAAAAAAAAAAAAAAAAAAAAAAAAAAAAAAAAAAAAAAAAAAAAAAAAAAAAAAAAAAAAAAAAAAAAAAAAAAAAAAAAAAAAAAAAAAAAAAAAAAAAAAAAAAAAAAAAAAAAAAAAAAAAAAAAAAAAAAAAAAAAAAAAAAAAAAAAAAAAAAAAAAAAAAAAAAAAAAAAAAAAAAAAAAAAAAAAAAAAAAAAAAAAAAAAAAAAAAAAAAAAAAAAAAAAAAAAAAAAAAAAAAAAAAAAAAAAAAAAAAAAAAAAAAAAAAAAAAAAAAAAAAAAAAAAAAAAAAAAAAAAAAAAAAAAAAAAAAAAAAAAAAAAAAAAAAAAAAAAAAAAAAAAAAAAAAAAAAAAAAAAAAAAAAAAAAAAAAAAAAAAAAAAAAAAAAAAAAAAAAAAAAAAAAAAAAAAAAAAAAAAAAAAAAAAAAAAAAAAAAAAAAAAAAAAAAAAAAAAAAAAAAAAAAAAAAAAAAAAAAAAAAAAAAAAAAAAAAAAAAAAAAAAAAAAAAAAAAAAAAAAAAAAAAAAAAAAAAAAAAAAAAAAAAAAAAAAAAAAAAAAAAAAAAAAAAAAAAAAAAAAAAAAAAAAAAAAAAAAAAAAAAAAAAAAAAAAAAAAAAAAAAAAAAAAAAAAAAAAAAAAAAAAAAAAAAAAAAAAAAAAAAAAAAAAAAAAAAAAAAAAAAAAAAAAAAAAAAAAAAAAAAAAAAAAAAAAAAAAAAAAAAAAAAAAAAAAAAAAAAAAAAAAAAAAAAAAAAAAAAAAAAAAAAAAAAAAAAAAAAAAAAAAAAAAAAAAAAAAAAAAAAAAAAAAAAAAAAAAAAAAAAAAAAAAAAAAAAAAAAAAAAAAAAAAAAAAAAAAAAAAAAAAAAAAAAAAAAAAAAAAAAAAAAAAAAAAAAAAAAAAAAAAAAAAAAAAAAAAAAAAAAAAAAAAAAAAAAAAAAAAAAAAAAAAAAAAAAAAAAAAAAAAAAAAAAAAAAAAAAAAAAAAAAAAAAAAAAAAAAAAAAAAAAAAAAAAAAAAAAAAAAAAAAAAAAAAAAAAAAAAAAAAAAAAAAAAAAAAAAAAAAAAAAAAAAAAAAAAAAAAAAAAAAAAAAAAAAAAAAAAAAAAAAAAAAAAAAAAAAAAAAAAAAAAAAAAAAAAAAAAAAAAAAAAAAAAAAAAAAAAAAAAAAAAAAAAAAAAAAAAAAAAAAAAAAAAAAAAAAAAAAAAAAAAAAAAAAAAAAAAAAAAAAAAAAAAAAAAAAAAAAAAAAAAAAAAAAAAAAAAAAAAAAAAAAAAAAAAAAAAAAAAAAAAAAAAAAAAAAAAAAAAAAAAAAAAAAAAAAAAAAAAAAAAAAAAAAAAAAAAAAAAAAAAAAAAAAAAAAAAAAAAAAAAAAAAAAAAAAAAAAAAAAAAAAAAAAAAAAAAAAAAAAAAAAAAAAAAAAAAAAAAAAAAAAAAAAAAAAAAAAAAAAAAAAAAAAAAAAAAAAAAAAAAAAAAAAAAAAAAAAAAAAAAAAAAAAAAAAAAAAAAAAAAAAAAAAAAAAAAAAAAAAAAAAAAAAAAAAAAAAAAAAAAAAAAAAAAAAAAAAAAAAAAAAAAAAAAAAAAAAAAAAAAAAAAAAAAAAAAAAAAAAAAAAAAAAAAAAAAAAAAAAAAAAAAAAAAAAAAAAAAAAAAAAAAAAAAAAAAAAAAAAAAAAAAAAAAAAAAAAAAAAAAAAAAAAAAAAAAAAAAAAAAAAAAAAAAAAAAAAAAAAAAAAAAAAAAAAAAAAAAAAAAAAAAAAAAAAAAAAAAAAAAAAAAAAAAAAAAAAAAAAAAAAAAAAAAAAAAAAAAAAAAAAAAAAAAAAAAAAAAAAAAAAAAAAAAAAAAAAAAAAAAAAAAAAAAAAAAAAAAAAAAAAAAAAAAAAAAAAAAAAAAAAAAAAAAAAAAAAAAAAAAAAAAAAAAAAAAAAAAAAAAAAAAAAAAAAAAAAAAAAAAAAAAAAAAAAAAAAAAAAAAAAAAAAAAAAAAAAAAAAAAAAAAAAAAAAAAAAAAAAAAAAAAAAAAAAAAAAAAAAAAAAAAAAAAAAAAAAAAAAAAAAAAAAAAAAAAAAAAAAAAAAAAAAAAAAAAAAAAAAAAAAAAAAAAAAAAAAAAAAAAAAAAAAAAAAAAAAAAAAAAAAAAAAAAAAAAAAAAAAAAAAAAAAAAAAAAAAAAAAAAAAAAAAAAAAAAAAAAAAAAAAAAAAAAAAAAAAAAAAAAAAAAAAAAAAAAAAAAAAAAAAAAAAAAAAAAAAAAAAAAAAAAAAAAAAAAAAAAAAAAAAAAAAAAAAAAAAAAAAAAAAAAAAAAAAAAAAAAAAAAAAAAAAAAAAAAAAAAAAAAAAAAAAAAAAAAAAAAAAAAAAAAAAAAAAAAAAAAAAAAAAAAAAAAAAAAAAAAAAAAAAAAAAAAAAAAAAAAAAAAAAAAAAAAAAAAAAAAAAAAAAAAAAAAAAAAAAAAAAAAAAAAAAAAAAAAAAAAAAAAAAAAAAAAAAAAAAAAAAAAAAAAAAAAAAAAAAAAAAAAAAAAAAAAAAAAAAAAAAAAAAAAAAAAAAAAAAAAAAAAAAAAAAAAAAAAAAAAAAAAAAAAAAAAAAAAAAAAAAAAAAAAAAAAAAAAAAAAAAAAAAAAAAAAAAAAAAAAAAAAAAAAAAAAAAAAAAAAAAAAAAAAAAAAAAAAAAAAAAAAAAAAAAAAAAAAAAAAAAAAAAAAAAAAAAAAAAAAAAAAAAAAAAAAAAAAAAAAAAAAAAAAAAAAAAAAAAAAAAAAAAAAAAAAAAAAAAAAAAAAAAAAAAAAAAAAAAAAAAAAAAAAAAAAAAAAAAAAAAAAAAAAAAAAAAAAAAAAAAAAAAAAAAAAAAAAAAAAAAAAAAAAAAAAAAAAAAAAAAAAAAAAAAAAAAAAAAAAAAAAAAAPZYQJrli76EeuXUafnfwOaxABDRYrvUfyW6KcMC6NXFUO51UzwG7WnjVIaQ33ZGA9ut8fg8nHFnlaA/rIPnMGs7Wpc=</c2pa:manifest></metadata>
  <symbol id="kria-shuttlecock" viewBox="0 0 24 24"><path d="M9.5 3h5l1 4h-7z"></path><path d="M7.5 7 4 19l8 2 8-2L16.5 7z"></path><path d="M10 7 8.4 19M14 7l1.6 12M12 7v14"></path></symbol>
  <symbol id="kria-racket" viewBox="0 0 24 24"><path d="M12 3l6 5-6 5-6-5z"></path><path d="M9 5.5h6M8.6 8.2h6.8M12 3v10"></path><path d="M12 13v8M10 21h4"></path></symbol>
  <symbol id="kria-court" viewBox="0 0 24 24"><path d="M3 4h18v16H3z"></path><path d="M3 12h18M7 4v16M17 4v16M3 8h18M3 16h18"></path></symbol>
  <symbol id="kria-cricket-bat" viewBox="0 0 24 24"><path d="M10 2.5h4v4h-4z"></path><path d="M8.5 6.5h7l-.5 10-3 5-3-5z"></path><path d="M12 8v12"></path></symbol>
  <symbol id="kria-stumps" viewBox="0 0 24 24"><path d="M7 8v13M12 8v13M17 8v13"></path><path d="M5.8 6.6h6.4M11.8 6.6h6.4"></path></symbol>
  <symbol id="kria-ball" viewBox="0 0 24 24"><circle cx="12" cy="12" r="9"></circle><path d="M8.6 3.8c2.4 5 2.4 11.4 0 16.4"></path><path d="M7 8h3M6.6 12h3M7 16h3"></path></symbol>
  <symbol id="kria-bracket" viewBox="0 0 24 24"><path d="M3 6h4M3 11h4M7 6v5M7 8.5h5M3 15h4M3 20h4M7 15v5M7 17.5h5M12 8.5v9M12 13h9"></path></symbol>
  <symbol id="kria-trophy" viewBox="0 0 24 24"><path d="M6 4h12v4l-6 7-6-7z"></path><path d="M6 5.5H3v3l3 2M18 5.5h3v3l-3 2"></path><path d="M12 15v4M8 20.5h8"></path></symbol>
  <symbol id="kria-medal" viewBox="0 0 24 24"><path d="M8 3l2 5.5M16 3l-2 5.5"></path><path d="M8 9h8v8H8z"></path><path d="M11 12h2v2h-2z"></path></symbol>
  <symbol id="kria-scoreboard" viewBox="0 0 24 24"><path d="M3 4h18v13H3z"></path><path d="M12 4v13M6 9h3M15 9h3M6 12.5h3M15 12.5h3"></path><path d="M7 17v3.5M17 17v3.5"></path></symbol>
  <symbol id="kria-whistle" viewBox="0 0 24 24"><path d="M4 9h9l7-2.5v11L13 15H4z"></path><path d="M6.5 11h2.5v2.5H6.5z"></path></symbol>
  <symbol id="kria-stopwatch" viewBox="0 0 24 24"><path d="M10 2h4v3h-4z"></path><path d="M4 13.5l8-8 8 8-8 7.5z"></path><path d="M12 13.5V9"></path></symbol>
  <symbol id="kria-target" viewBox="0 0 24 24"><path d="M4 4h16v16H4z"></path><path d="M8.5 8.5h7v7h-7z"></path><path d="M11.3 11.3h1.4v1.4h-1.4z"></path></symbol>
  <symbol id="kria-star" viewBox="0 0 24 24"><path d="M12 3l2.6 6.4L21 12l-6.4 2.6L12 21l-2.6-6.4L3 12l6.4-2.6z"></path></symbol>
  <symbol id="kria-gavel" viewBox="0 0 24 24"><path d="M12.5 2.5l9 9-3 3-9-9z"></path><path d="M10.5 8.5 3 16l2.5 2.5L13 11"></path><path d="M13 21h8"></path></symbol>
  <symbol id="kria-paddle" viewBox="0 0 24 24"><path d="M7.5 3h9v10h-9z"></path><path d="M10.5 6h3v4h-3z"></path><path d="M12 13v8M9.5 21h5"></path></symbol>
  <symbol id="kria-cash" viewBox="0 0 24 24"><path d="M3 7h18v10H3z"></path><path d="M10 10h4v4h-4z"></path><path d="M6 10v4M18 10v4"></path></symbol>
  <symbol id="kria-card" viewBox="0 0 24 24"><path d="M3 6h18v12H3z"></path><path d="M3 10h18M6 14h4"></path></symbol>
  <symbol id="kria-wallet" viewBox="0 0 24 24"><path d="M3 6h18v14H3z"></path><path d="M3 11h18"></path><path d="M15 13.5h4v4h-4z"></path></symbol>
  <symbol id="kria-receipt" viewBox="0 0 24 24"><path d="M5 3h14v15.5H5z"></path><path d="M5 18.5l2.3 2.3 2.3-2.3 2.4 2.3 2.3-2.3 2.4 2.3L19 18.5"></path><path d="M8 8h8M8 12h8"></path></symbol>
  <symbol id="kria-lock" viewBox="0 0 24 24"><path d="M6 11h12v10H6z"></path><path d="M9 11V8l3-3 3 3v3"></path></symbol>
  <symbol id="kria-hourglass" viewBox="0 0 24 24"><path d="M6 3h12v3.5L12 12l6 5.5V21H6v-3.5L12 12 6 6.5z"></path></symbol>
  <symbol id="kria-home" viewBox="0 0 24 24"><path d="M3.5 11.5 12 4l8.5 7.5V20.5h-17z"></path><path d="M9.5 20.5v-6h5v6"></path></symbol>
  <symbol id="kria-search" viewBox="0 0 24 24"><path d="M4 4h11v11H4z"></path><path d="M15 15l5 5"></path></symbol>
  <symbol id="kria-bell" viewBox="0 0 24 24"><path d="M5 18l2.5-3.5V10L12 5.5 16.5 10v4.5L19 18z"></path><path d="M10 18v1.8h4V18"></path></symbol>
  <symbol id="kria-user" viewBox="0 0 24 24"><path d="M8 3.5h8v7H8z"></path><path d="M4 20.5v-3l4-2h8l4 2v3"></path></symbol>
  <symbol id="kria-users" viewBox="0 0 24 24"><path d="M6 5h6v5H6z"></path><path d="M2 20v-2.5l4-2h6l4 2V20"></path><path d="M15 4h5v4h-5z"></path><path d="M22 14.5 19.5 13"></path></symbol>
  <symbol id="kria-gear" viewBox="0 0 24 24"><path d="M6.5 6.5h11v11h-11z"></path><path d="M10 10h4v4h-4z"></path><path d="M12 2v4.5M12 17.5V22M2 12h4.5M17.5 12H22"></path></symbol>
  <symbol id="kria-menu" viewBox="0 0 24 24"><path d="M3 6h18M3 12h18M3 18h18"></path></symbol>
  <symbol id="kria-close" viewBox="0 0 24 24"><path d="M5 5l14 14M19 5L5 19"></path></symbol>
  <symbol id="kria-chevron-left" viewBox="0 0 24 24"><path d="M15 4 7 12l8 8"></path></symbol>
  <symbol id="kria-chevron-right" viewBox="0 0 24 24"><path d="M9 4l8 8-8 8"></path></symbol>
  <symbol id="kria-chevron-down" viewBox="0 0 24 24"><path d="M4 9l8 8 8-8"></path></symbol>
  <symbol id="kria-arrow-right" viewBox="0 0 24 24"><path d="M3 12h16M13 6l6 6-6 6"></path></symbol>
  <symbol id="kria-filter" viewBox="0 0 24 24"><path d="M3 5h18l-7 8v7l-4-2.5V13z"></path></symbol>
  <symbol id="kria-sort" viewBox="0 0 24 24"><path d="M3 6h9M3 12h6M3 18h3"></path><path d="M17 5v14M13.5 15.5 17 19l3.5-3.5"></path></symbol>
  <symbol id="kria-live" viewBox="0 0 24 24"><path d="M9 9h6v6H9z" style="fill:currentColor;stroke:none"></path><path d="M6.5 6 3.5 12l3 6M17.5 6l3 6-3 6"></path></symbol>
  <symbol id="kria-alert" viewBox="0 0 24 24"><path d="M12 3l10 18H2z"></path><path d="M12 9.5v5M11 16.6h2v2h-2z"></path></symbol>
  <symbol id="kria-error" viewBox="0 0 24 24"><path d="M8 3h8l5 5v8l-5 5H8l-5-5V8z"></path><path d="M9 9l6 6M15 9l-6 6"></path></symbol>
  <symbol id="kria-info" viewBox="0 0 24 24"><path d="M4 4h16v16H4z"></path><path d="M12 10.5v7M11 6.5h2v2h-2z"></path></symbol>
  <symbol id="kria-retry" viewBox="0 0 24 24"><path d="M6 6h12v12H8.5"></path><path d="M11 15l-3 3 3 3"></path></symbol>
  <symbol id="kria-signal-off" viewBox="0 0 24 24"><path d="M4 20v-4M9 20v-6.5M14 20V9M19 20V4"></path><path d="M3 3l18 18"></path></symbol>
  <symbol id="kria-check" viewBox="0 0 24 24"><path d="M4 12.5 9.5 18 20 6"></path></symbol>
  <symbol id="kria-clock" viewBox="0 0 24 24"><circle cx="12" cy="12" r="9"></circle><path d="M12 6.5v6l4 2.5"></path></symbol>
  <symbol id="kria-calendar" viewBox="0 0 24 24"><path d="M4 6h16v14H4z"></path><path d="M4 10.5h16M8 3v4M16 3v4"></path><path d="M8 13.5h2.5V16H8z"></path></symbol>
  <symbol id="kria-map-pin" viewBox="0 0 24 24"><path d="M12 21 5 11 12 3l7 8z"></path><path d="M10.5 9.5h3v3h-3z"></path></symbol>
  <symbol id="kria-share" viewBox="0 0 24 24"><path d="M16 3h5v5h-5z"></path><path d="M3 9.5h5v5H3z"></path><path d="M16 16h5v5h-5z"></path><path d="M8 11l8-4.5M8 13l8 4.5"></path></symbol>
  <symbol id="kria-edit" viewBox="0 0 24 24"><path d="M4 20h4L20 8l-4-4L4 16z"></path><path d="M14 6l4 4"></path></symbol>
  <symbol id="kria-trash" viewBox="0 0 24 24"><path d="M4 6h16M9 6V3.5h6V6"></path><path d="M6 6l1 15h10l1-15"></path><path d="M10 10v7M14 10v7"></path></symbol>
  <symbol id="kria-camera" viewBox="0 0 24 24"><path d="M3 7h4l2-2h6l2 2h4v13H3z"></path><path d="M9 11h6v6H9z"></path></symbol>
  <symbol id="kria-image" viewBox="0 0 24 24"><path d="M3 5h18v14H3z"></path><path d="M3 15.5l5-5 4 4 3-3 6 6"></path><path d="M15.5 8h2.5v2.5h-2.5z"></path></symbol>
  <symbol id="kria-chat" viewBox="0 0 24 24"><path d="M3 4h18v12H8l-5 4z"></path><path d="M7 8h10M7 12h6"></path></symbol>
  <symbol id="kria-download" viewBox="0 0 24 24"><path d="M12 4v11M7 10.5l5 5 5-5"></path><path d="M4 20h16"></path></symbol>
  <symbol id="kria-plus" viewBox="0 0 24 24"><path d="M12 4v16M4 12h16"></path></symbol>
  <symbol id="kria-more" viewBox="0 0 24 24"><path d="M3.5 10.5h3v3h-3zM10.5 10.5h3v3h-3zM17.5 10.5h3v3h-3z"></path></symbol>
  <symbol id="kria-grid" viewBox="0 0 24 24"><path d="M3 3h8v8H3zM13 3h8v8h-8zM3 13h8v8H3zM13 13h8v8h-8z"></path></symbol>
  <symbol id="kria-list" viewBox="0 0 24 24"><path d="M3 6h3.5v3.5H3zM3 14.5h3.5V18H3z"></path><path d="M10 7.5h11M10 16h11"></path></symbol>
  <symbol id="kria-eye" viewBox="0 0 24 24"><path d="M2 12l5-5h10l5 5-5 5H7z"></path><path d="M10 10h4v4h-4z"></path></symbol>
  <symbol id="kria-flag" viewBox="0 0 24 24"><path d="M6 3v18"></path><path d="M6 4h12l-2.5 4L18 12H6z"></path></symbol>
  <symbol id="kria-bookmark" viewBox="0 0 24 24"><path d="M6 3h12v18l-6-5-6 5z"></path></symbol>
  <symbol id="kria-shield" viewBox="0 0 24 24"><path d="M12 3l8 3v7l-8 8-8-8V6z"></path><path d="M9 12l2.5 2.5L16 10"></path></symbol>
  <symbol id="kria-external" viewBox="0 0 24 24"><path d="M14 4h6v6M20 4l-8 8"></path><path d="M18 13v7H4V6h7"></path></symbol>
  <symbol id="kria-home-f" viewBox="0 0 24 24"><path d="M12 3.5 21 11.5V20.5h-6.5v-6h-5v6H3V11.5z" style="fill:currentColor;stroke:none"></path></symbol>
  <symbol id="kria-bell-f" viewBox="0 0 24 24"><path d="M5 18l2.5-3.5V10L12 5.5 16.5 10v4.5L19 18zM10 19h4v1.8h-4z" style="fill:currentColor;stroke:none"></path></symbol>
  <symbol id="kria-user-f" viewBox="0 0 24 24"><path d="M8 3.5h8v7H8zM4 20.5v-3l4-2h8l4 2v3z" style="fill:currentColor;stroke:none"></path></symbol>
  <symbol id="kria-trophy-f" viewBox="0 0 24 24"><path d="M6 4h12v4l-6 7-6-7zM11 15h2v4.5h-2zM8 19.5h8V21H8z" style="fill:currentColor;stroke:none"></path><path d="M6 5.5H3v3l3 2M18 5.5h3v3l-3 2"></path></symbol>
  <symbol id="kria-star-f" viewBox="0 0 24 24"><path d="M12 3l2.6 6.4L21 12l-6.4 2.6L12 21l-2.6-6.4L3 12l6.4-2.6z" style="fill:currentColor;stroke:none"></path></symbol>
  <symbol id="kria-bookmark-f" viewBox="0 0 24 24"><path d="M6 3h12v18l-6-5-6 5z" style="fill:currentColor;stroke:none"></path></symbol>
  <symbol id="kria-map-pin-f" viewBox="0 0 24 24"><path fill-rule="evenodd" d="M12 21 5 11 12 3l7 8zM10.5 9.5h3v3h-3z" style="fill:currentColor;stroke:none"></path></symbol>
  <symbol id="kria-shield-f" viewBox="0 0 24 24"><path d="M12 3l8 3v7l-8 8-8-8V6z" style="fill:currentColor;stroke:none"></path></symbol>
  <symbol id="kria-lock-f" viewBox="0 0 24 24"><path d="M6 11h12v10H6z" style="fill:currentColor;stroke:none"></path><path d="M9 11V8l3-3 3 3v3"></path></symbol>
  <symbol id="kria-flag-f" viewBox="0 0 24 24"><path d="M5 3h1.6v18H5zM6.6 4h11.4l-2.5 4 2.5 4H6.6z" style="fill:currentColor;stroke:none"></path></symbol>
  <symbol id="kria-live-f" viewBox="0 0 24 24"><path d="M8 8h8v8H8z" style="fill:currentColor;stroke:none"></path><path d="M5.5 4.5 2 12l3.5 7.5M18.5 4.5 22 12l-3.5 7.5"></path></symbol>
</svg>